<?xml version="1.0" encoding="utf-8"?>
<!-- Generator: Adobe Illustrator 27.0.0, SVG Export Plug-In . SVG Version: 6.00 Build 0)  -->
<svg version="1.1" id="Layer_1" xmlns="http://www.w3.org/2000/svg" xmlns:xlink="http://www.w3.org/1999/xlink" x="0px" y="0px"
	 viewBox="0 0 432 432" style="enable-background:new 0 0 432 432;" xml:space="preserve">
<style type="text/css">
	.st0{fill:url(#SVGID_1_);}
	.st1{fill:url(#SVGID_00000009587517603335491380000009478332326876250533_);}
	.st2{fill:url(#SVGID_00000173840848663010560050000010060215867356590492_);}
	.st3{fill:url(#SVGID_00000126311177085140150690000008515568961258617519_);}
	.st4{fill:url(#SVGID_00000047057532691273840650000009726036109414118033_);}
</style>
<g>
	<linearGradient id="SVGID_1_" gradientUnits="userSpaceOnUse" x1="121.454" y1="219.8503" x2="310.546" y2="219.8503">
		<stop  offset="0" style="stop-color:#93C650"/>
		<stop  offset="0.1793" style="stop-color:#7EC26B"/>
		<stop  offset="0.4104" style="stop-color:#64BE85"/>
		<stop  offset="0.6305" style="stop-color:#4CBB95"/>
		<stop  offset="0.8326" style="stop-color:#39B99E"/>
		<stop  offset="1" style="stop-color:#30B8A1"/>
	</linearGradient>
	<path class="st0" d="M141.71,263.23c-2.62,0-4.94,0.16-7.24-0.03c-7.17-0.57-12.8-6.52-12.93-13.72c-0.11-6.12-0.11-12.24,0-18.35
		c0.13-7.6,6.28-13.71,13.89-13.94c2.02-0.06,4.04-0.01,6.29-0.01c0-2.53-0.05-4.83,0.01-7.13c0.47-17.15,4.92-33.04,15.45-46.82
		c11.41-14.93,26.7-23.68,45.06-26.9c18.65-3.27,36.45-0.45,52.82,9.3c18.55,11.04,29.34,27.67,33.45,48.64
		c1.17,5.96,1.27,12.13,1.81,18.21c0.13,1.45,0.02,2.93,0.02,4.69c1.95,0,3.75-0.01,5.55,0c8.44,0.07,14.6,6.23,14.65,14.7
		c0.04,5.63,0.04,11.25,0,16.88c-0.06,7.97-5.58,13.9-13.49,14.51c-1.75,0.13-3.52,0.17-5.27,0.08c-1.35-0.07-1.92,0.43-2.42,1.68
		c-2.46,6.11-8.59,9.93-14.81,9.39c-6.82-0.6-12.2-5.27-13.58-11.9c-0.26-1.22-0.27-2.51-0.27-3.77
		c-0.02-12.31,0.29-24.62-0.1-36.91c-0.38-12.03,11.34-19.28,22.07-14.06c0.18,0.09,0.39,0.12,0.6,0.17
		c0.82-14.51-6.23-38.26-26.95-53.08c-22.8-16.31-47.27-18.12-72.16-5.29c-24.26,12.5-35.66,37.24-35.52,57.91
		c2.81-0.45,5.65-1.25,8.5-1.3c7.73-0.14,14.12,6,14.2,13.72c0.14,13.71,0.18,27.42,0,41.13c-0.13,9.58-11.08,16.11-20.4,12.42
		c-0.71-0.28-1.4-0.61-2.65-1.17c0.24,3.82,0.01,7.43,0.8,10.8c1.02,4.31,4.26,6.8,8.7,7.54c0.83,0.14,1.68,0.2,2.52,0.2
		c9.14,0.01,18.28-0.01,27.42,0.03c1.18,0,1.84-0.28,2.42-1.44c1.8-3.64,4.83-5.6,8.93-5.66c4.78-0.06,9.56-0.09,14.34,0
		c5.98,0.12,10.1,4.47,10.06,10.46c-0.04,5.93-4.02,10.18-9.94,10.35c-4.85,0.14-9.7,0.1-14.55,0.01c-4-0.07-7.01-1.99-8.77-5.55
		c-0.63-1.28-1.41-1.47-2.63-1.46c-9.07,0.03-18.14,0.06-27.21,0.01c-9.61-0.06-16.71-5.75-18.35-14.73
		c-0.31-1.71-0.25-3.5-0.26-5.25C141.69,272.97,141.71,268.34,141.71,263.23z M267.41,240.13c0,6.47-0.02,12.93,0.01,19.4
		c0.02,5.1,3.24,8.23,8.35,8.21c4.53-0.02,7.78-3.37,7.79-8.15c0.03-12.86,0.02-25.72,0-38.58c-0.01-4.85-3.18-8.14-7.74-8.15
		c-5.26-0.02-8.38,2.95-8.4,8.1C267.39,227.34,267.41,233.74,267.41,240.13z M148.46,240.16c0,6.46-0.02,12.93,0.01,19.39
		c0.02,4.95,3.1,8.07,7.97,8.13c4.92,0.07,8.16-3.11,8.17-8.14c0.03-12.86,0.03-25.72,0-38.57c-0.01-4.85-3.19-8.12-7.76-8.12
		c-5.25,0-8.36,2.99-8.38,8.13C148.44,227.38,148.46,233.77,148.46,240.16z M141.62,223.94c-2.27,0-4.3-0.11-6.32,0.02
		c-3.85,0.24-6.93,3.29-7,7.12c-0.12,6.1-0.09,12.21-0.01,18.32c0.05,3.18,2.3,6.21,5.34,6.79c2.57,0.49,5.25,0.38,7.99,0.54
		C141.62,245.63,141.62,234.92,141.62,223.94z M290.48,223.94c0,10.99,0,21.74,0,32.55c2.32,0,4.5,0.17,6.64-0.04
		c3.78-0.36,6.56-3.39,6.62-7.22c0.09-5.96,0.09-11.93,0-17.9c-0.06-4.06-3.15-7.19-7.18-7.39
		C294.61,223.85,292.64,223.94,290.48,223.94z M206.24,290.48c-2.1,0-4.2,0-6.31,0c-0.14,0-0.28,0-0.42,0
		c-2.5,0.1-3.79,1.39-3.77,3.78c0.02,2.2,1.34,3.55,3.76,3.58c4.48,0.06,8.97,0.06,13.45,0c2.47-0.03,3.84-1.45,3.82-3.77
		c-0.02-2.12-1.46-3.53-3.81-3.58C210.72,290.45,208.48,290.49,206.24,290.48z"/>
	
		<linearGradient id="SVGID_00000182503316784574260190000006066181448739907243_" gradientUnits="userSpaceOnUse" x1="183.6055" y1="218.9424" x2="248.284" y2="218.9424">
		<stop  offset="0" style="stop-color:#93C650"/>
		<stop  offset="0.1793" style="stop-color:#7EC26B"/>
		<stop  offset="0.4104" style="stop-color:#64BE85"/>
		<stop  offset="0.6305" style="stop-color:#4CBB95"/>
		<stop  offset="0.8326" style="stop-color:#39B99E"/>
		<stop  offset="1" style="stop-color:#30B8A1"/>
	</linearGradient>
	<path style="fill:url(#SVGID_00000182503316784574260190000006066181448739907243_);" d="M193.4,245.21c0-0.35-0.03-0.71,0-1.05
		c0.45-5.14-0.66-9.43-4.02-13.87c-7.88-10.4-7.49-24.98-0.1-36c7.26-10.83,20.46-16.12,33.55-13.43
		c12.48,2.56,22.54,12.85,24.88,25.46c3.86,20.79-12.28,39.34-33.4,38.28c-1.93-0.1-3.26,0.35-4.6,1.75
		c-3.2,3.36-6.6,6.53-9.88,9.81c-1.24,1.24-2.6,2-4.33,1.28c-1.75-0.73-2.13-2.27-2.11-4C193.42,250.69,193.4,247.95,193.4,245.21z
		 M200.15,245.65c0.26,0.16,0.53,0.32,0.79,0.49c2.25-2.4,4.38-4.94,6.82-7.14c0.95-0.86,2.65-1.46,3.91-1.31
		c10.48,1.28,19.13-1.95,25.22-10.61c6.16-8.75,6.33-18.25,1.21-27.47c-5.3-9.54-14.11-13.28-24.69-12.33
		c-10.04,0.9-17.46,6.06-21.07,15.7c-3.79,10.12-1.98,19.38,5.49,27.28c1.63,1.73,2.47,3.39,2.36,5.75
		C200.04,239.21,200.15,242.43,200.15,245.65z"/>
	
		<linearGradient id="SVGID_00000070804956802692649070000017435065676987906745_" gradientUnits="userSpaceOnUse" x1="200.3935" y1="213.0385" x2="207.28" y2="213.0385">
		<stop  offset="0" style="stop-color:#93C650"/>
		<stop  offset="0.1793" style="stop-color:#7EC26B"/>
		<stop  offset="0.4104" style="stop-color:#64BE85"/>
		<stop  offset="0.6305" style="stop-color:#4CBB95"/>
		<stop  offset="0.8326" style="stop-color:#39B99E"/>
		<stop  offset="1" style="stop-color:#30B8A1"/>
	</linearGradient>
	<path style="fill:url(#SVGID_00000070804956802692649070000017435065676987906745_);" d="M203.95,209.53
		c1.91,0.06,3.38,1.64,3.33,3.61c-0.05,1.93-1.67,3.48-3.55,3.41c-1.88-0.07-3.4-1.72-3.34-3.63
		C200.46,210.97,202.03,209.47,203.95,209.53z"/>
	
		<linearGradient id="SVGID_00000101067705196898438990000005756636316699995555_" gradientUnits="userSpaceOnUse" x1="224.7487" y1="213.0437" x2="231.6349" y2="213.0437">
		<stop  offset="0" style="stop-color:#93C650"/>
		<stop  offset="0.1793" style="stop-color:#7EC26B"/>
		<stop  offset="0.4104" style="stop-color:#64BE85"/>
		<stop  offset="0.6305" style="stop-color:#4CBB95"/>
		<stop  offset="0.8326" style="stop-color:#39B99E"/>
		<stop  offset="1" style="stop-color:#30B8A1"/>
	</linearGradient>
	<path style="fill:url(#SVGID_00000101067705196898438990000005756636316699995555_);" d="M228.08,216.55
		c-1.89-0.06-3.38-1.68-3.33-3.63c0.05-1.96,1.6-3.45,3.53-3.39c1.91,0.06,3.4,1.66,3.35,3.59
		C231.58,215.03,229.94,216.61,228.08,216.55z"/>
	
		<linearGradient id="SVGID_00000091715148083937637650000014971684520662835607_" gradientUnits="userSpaceOnUse" x1="212.5808" y1="213.0399" x2="219.4436" y2="213.0399">
		<stop  offset="0" style="stop-color:#93C650"/>
		<stop  offset="0.1793" style="stop-color:#7EC26B"/>
		<stop  offset="0.4104" style="stop-color:#64BE85"/>
		<stop  offset="0.6305" style="stop-color:#4CBB95"/>
		<stop  offset="0.8326" style="stop-color:#39B99E"/>
		<stop  offset="1" style="stop-color:#30B8A1"/>
	</linearGradient>
	<path style="fill:url(#SVGID_00000091715148083937637650000014971684520662835607_);" d="M215.96,209.53
		c1.93-0.03,3.46,1.48,3.48,3.44c0.02,1.94-1.49,3.54-3.38,3.57c-1.88,0.03-3.46-1.54-3.48-3.48
		C212.56,211.1,214.03,209.56,215.96,209.53z"/>
</g>
</svg>
