<?xml version="1.0" encoding="utf-8"?>
<!-- Generator: Adobe Illustrator 27.0.0, SVG Export Plug-In . SVG Version: 6.00 Build 0)  -->
<svg version="1.1" id="Layer_1" xmlns="http://www.w3.org/2000/svg" xmlns:xlink="http://www.w3.org/1999/xlink" x="0px" y="0px"
	 viewBox="0 0 432 432" style="enable-background:new 0 0 432 432;" xml:space="preserve">
<style type="text/css">
	.st0{fill:url(#SVGID_1_);}
	.st1{fill:url(#SVGID_00000057134085793353908720000009187768544671081370_);}
	.st2{fill:url(#SVGID_00000057134129758362119880000007471914586780550033_);}
	.st3{fill:url(#SVGID_00000065755049880950441530000009292727269854079915_);}
</style>
<g>
	<linearGradient id="SVGID_1_" gradientUnits="userSpaceOnUse" x1="107.1477" y1="222.5281" x2="324.8523" y2="222.5281">
		<stop  offset="0" style="stop-color:#93C650"/>
		<stop  offset="0.1793" style="stop-color:#7EC26B"/>
		<stop  offset="0.4104" style="stop-color:#64BE85"/>
		<stop  offset="0.6305" style="stop-color:#4CBB95"/>
		<stop  offset="0.8326" style="stop-color:#39B99E"/>
		<stop  offset="1" style="stop-color:#30B8A1"/>
	</linearGradient>
	<path class="st0" d="M324.85,271.03c-1.48,3.5-3.52,6.42-7.55,7.31c-4,0.88-7.34-0.3-9.86-3.41c-2.54-3.14-2.95-6.75-1.12-10.35
		c0.69-1.35,0.69-2.22-0.17-3.4c-1.74-2.41-3.4-4.89-4.95-7.42c-0.73-1.2-1.58-1.55-2.93-1.54c-5.6,0.07-11.2,0.08-16.79,0
		c-1.43-0.02-2.06,0.4-2.57,1.79c-9.82,26.48-27.41,46.1-52.48,59.03c-2.7,1.39-5.49,2.67-8.35,3.66c-1.27,0.44-3,0.48-4.22-0.02
		c-29.19-12.02-49.43-32.81-60.68-62.31c-0.59-1.55-1.18-2.22-2.95-2.17c-5.52,0.14-11.05,0.09-16.58,0.02
		c-1.26-0.01-2.07,0.32-2.77,1.44c-1.68,2.7-3.58,5.28-5.23,8c-0.37,0.61-0.43,1.75-0.12,2.4c2.1,4.34,1.38,8.99-2.02,12.05
		c-3.3,2.97-8.07,3.36-11.81,0.98c-3.68-2.35-5.35-6.77-4.13-10.92c1.25-4.24,5.39-7.24,10.02-7c1.49,0.08,2.31-0.34,3.07-1.56
		c2-3.17,4.19-6.23,6.19-9.41c1.05-1.67,2.37-2.4,4.38-2.37c5.6,0.09,11.2,0.03,16.79,0.03c0.69,0,1.39,0,2.11,0
		c-1.12-6.71-2.21-13.24-3.32-19.95c-0.52-0.03-1.21-0.1-1.9-0.1c-4.39-0.01-8.79,0.05-13.18-0.02c-3.09-0.05-5.73-0.22-7.84,3.19
		c-2.14,3.46-7.21,4-10.98,2.28c-3.86-1.77-6.19-5.86-5.7-10.03c0.48-4.07,3.71-7.64,7.63-8.43c4.23-0.85,8.55,0.91,10.49,4.69
		c0.83,1.62,1.77,2.01,3.42,1.98c5.17-0.09,10.35-0.03,15.52-0.03c0.76,0,1.52,0,2.42,0c0-6.73,0-13.22,0-20.08
		c-1.04,0-2.07,0-3.09,0c-4.11,0-8.22-0.06-12.33,0.02c-1.97,0.04-3.33-0.63-4.4-2.34c-1.95-3.12-4.11-6.11-6.08-9.22
		c-0.83-1.31-1.63-1.91-3.36-1.79c-5.43,0.37-9.74-3.4-10.22-8.63c-0.5-5.32,3.1-9.88,8.44-10.71c4.98-0.77,9.75,2.57,10.88,7.66
		c0.53,2.38,0.05,4.6-0.99,6.8c-0.31,0.65-0.27,1.78,0.11,2.39c1.69,2.78,3.54,5.47,5.39,8.15c0.37,0.53,1.01,1.2,1.55,1.21
		c4.66,0.1,9.31,0.06,14.23,0.06c0-1.04,0-1.87,0-2.7c0-11.83,0-23.67,0-35.5c0-3.73,0.34-4.21,3.79-5.36
		c21.06-7.03,42.12-14.07,63.2-21.03c1.25-0.41,2.84-0.49,4.07-0.1c7.42,2.34,14.77,4.87,22.15,7.33c0.34,0.11,0.68,0.2,1,0.34
		c1.81,0.79,2.62,2.47,2,4.12c-0.63,1.66-2.28,2.46-4.17,1.84c-4.98-1.6-10.11-2.9-14.87-5.02c-5.58-2.48-10.61-1.94-16.24,0.05
		c-17.41,6.15-34.99,11.8-52.52,17.59c-1.49,0.49-2.08,1.13-2.08,2.8c0.07,20.2-0.41,40.4,0.14,60.58
		c1.14,41.82,20.72,72.13,58.15,90.94c3.22,1.62,5.89,1.58,9.1,0.01c31.24-15.26,50.28-39.87,56.69-74.05
		c1.08-5.74,1.42-11.68,1.47-17.54c0.17-19.91,0.04-39.82,0.11-59.74c0.01-1.83-0.6-2.55-2.28-3.09
		c-7.68-2.46-15.31-5.06-22.96-7.61c-0.4-0.13-0.81-0.26-1.2-0.42c-1.87-0.77-2.7-2.37-2.1-4.05c0.61-1.72,2.18-2.54,4.11-1.94
		c3.65,1.13,7.26,2.36,10.89,3.57c5.37,1.79,10.73,3.59,16.09,5.38c3.46,1.16,3.79,1.61,3.8,5.35c0,11.83,0,23.67,0,35.5
		c0,0.83,0,1.66,0,2.72c4.92,0,9.58,0.02,14.23-0.04c0.45-0.01,1.05-0.43,1.33-0.84c2.01-2.91,3.99-5.85,5.88-8.84
		c0.29-0.46,0.33-1.4,0.05-1.85c-2.97-4.85-1.03-11.67,4.68-14.07c5.48-2.3,11.03,0.5,13.22,6.63c0.07,0.2,0.21,0.37,0.32,0.55
		c0,1.13,0,2.27,0,3.4c-1.99,5.32-5.53,8.39-11.49,8.13c-0.52-0.02-1.25,0.56-1.59,1.05c-1.82,2.61-3.78,5.16-5.25,7.96
		c-1.82,3.49-4.39,4.66-8.24,4.37c-4.28-0.32-8.6-0.07-12.99-0.07c0,6.79,0,13.32,0,20.08c0.92,0,1.68,0,2.44,0
		c5.24,0,10.47-0.05,15.71,0.03c1.49,0.02,2.35-0.28,3.12-1.75c1.87-3.56,5.02-5.3,9.07-5.07c4.15,0.24,6.95,2.47,8.57,6.25
		c0.22,0.51,0.44,1.02,0.65,1.53c0,1.28,0,2.55,0,3.83c-0.11,0.18-0.27,0.34-0.33,0.53c-1.27,4.22-4.06,6.78-8.44,7.25
		c-4.29,0.45-7.47-1.44-9.73-5.12c-0.36-0.59-1.43-1.04-2.17-1.06c-5.09-0.09-10.19-0.05-15.28-0.05c-1.32,0-2.63,0-3.72,0
		c-1.14,6.87-2.23,13.38-3.34,20.05c6.24,0,12.46,0.07,18.68-0.04c2.14-0.04,3.62,0.64,4.74,2.49c1.39,2.3,2.99,4.47,4.42,6.74
		c1.5,2.37,2.79,4.97,6.35,4.18c0.25-0.05,0.54,0.13,0.82,0.2c4.13,1.09,6.58,3.9,8.01,7.77
		C324.85,268.48,324.85,269.75,324.85,271.03z M116.78,272.25c1.79,0.1,3.44-1.37,3.56-3.18c0.12-1.86-1.25-3.45-3.1-3.59
		c-1.96-0.15-3.61,1.3-3.68,3.24C113.49,270.52,114.97,272.15,116.78,272.25z M315,265.48c-1.87,0.03-3.33,1.51-3.32,3.37
		c0.01,1.83,1.52,3.38,3.34,3.4c1.88,0.03,3.51-1.64,3.45-3.52C318.39,266.88,316.87,265.45,315,265.48z M120.34,176.45
		c0.04-1.82-1.44-3.4-3.25-3.49c-1.87-0.09-3.55,1.54-3.54,3.42c0.01,1.84,1.5,3.32,3.37,3.33
		C118.8,179.74,120.3,178.31,120.34,176.45z M318.46,176.4c0.02-1.8-1.51-3.38-3.32-3.43c-1.81-0.05-3.4,1.45-3.47,3.27
		c-0.08,1.95,1.44,3.5,3.41,3.49C316.95,179.71,318.44,178.23,318.46,176.4z M116.9,225.76c1.83,0.03,3.38-1.44,3.44-3.28
		c0.06-1.85-1.37-3.39-3.23-3.46c-1.94-0.08-3.56,1.44-3.56,3.35C113.55,224.19,115.07,225.73,116.9,225.76z M315.11,219.01
		c-1.88-0.02-3.38,1.4-3.43,3.25c-0.05,1.92,1.53,3.52,3.44,3.49c1.83-0.03,3.35-1.57,3.34-3.39
		C318.46,220.53,316.96,219.04,315.11,219.01z"/>
	
		<linearGradient id="SVGID_00000022561671990168036020000014422532552739000476_" gradientUnits="userSpaceOnUse" x1="160.1486" y1="222.307" x2="271.9132" y2="222.307">
		<stop  offset="0" style="stop-color:#93C650"/>
		<stop  offset="0.1793" style="stop-color:#7EC26B"/>
		<stop  offset="0.4104" style="stop-color:#64BE85"/>
		<stop  offset="0.6305" style="stop-color:#4CBB95"/>
		<stop  offset="0.8326" style="stop-color:#39B99E"/>
		<stop  offset="1" style="stop-color:#30B8A1"/>
	</linearGradient>
	<path style="fill:url(#SVGID_00000022561671990168036020000014422532552739000476_);" d="M271.73,193.68
		c0,9.07,0.45,18.17-0.08,27.2c-2.19,37.35-20.13,64.51-53.58,81.32c-1.12,0.56-3.01,0.56-4.15,0
		c-28.86-14.04-46.19-36.97-52.39-68.39c-1.99-10.1-1.23-20.33-1.31-30.52c-0.02-1.99,1.39-3.28,3.17-3.26
		c1.83,0.03,3.12,1.37,3.15,3.56c0.06,4.75,0.03,9.49,0.03,14.24c0,19.98,6.29,37.82,18.47,53.58c7.92,10.24,17.7,18.29,29.37,23.97
		c0.85,0.41,2.26,0.49,3.06,0.06c27.79-14.66,43.59-37.65,47.47-68.81c0.37-2.94,0.43-5.94,0.44-8.91
		c0.04-16.94-0.01-33.87,0.06-50.81c0.01-1.63-0.47-2.29-2.03-2.8c-15.19-4.99-30.34-10.09-45.53-15.08
		c-1.11-0.36-2.54-0.39-3.64-0.03c-15.26,5.01-30.47,10.14-45.73,15.14c-1.62,0.53-1.99,1.29-1.97,2.85
		c0.08,6.87,0.04,13.75,0.03,20.62c0,0.71,0.03,1.43-0.11,2.12c-0.34,1.76-1.43,2.77-3.26,2.68c-1.83-0.09-2.86-1.17-2.96-2.98
		c-0.09-1.63-0.04-3.26-0.04-4.89c0-7.09,0.04-14.17-0.02-21.26c-0.02-2.18,0.91-3.39,2.94-4.06c17.05-5.65,34.07-11.36,51.13-16.97
		c1.05-0.35,2.42-0.35,3.47-0.01c17.06,5.61,34.09,11.32,51.14,16.97c2.15,0.71,2.97,2.03,2.95,4.27
		c-0.07,10.06-0.03,20.12-0.03,30.19C271.76,193.68,271.75,193.68,271.73,193.68z"/>
	
		<linearGradient id="SVGID_00000054262478578489532440000000842830454560974511_" gradientUnits="userSpaceOnUse" x1="183.0824" y1="212.7047" x2="248.8649" y2="212.7047">
		<stop  offset="0" style="stop-color:#93C650"/>
		<stop  offset="0.1793" style="stop-color:#7EC26B"/>
		<stop  offset="0.4104" style="stop-color:#64BE85"/>
		<stop  offset="0.6305" style="stop-color:#4CBB95"/>
		<stop  offset="0.8326" style="stop-color:#39B99E"/>
		<stop  offset="1" style="stop-color:#30B8A1"/>
	</linearGradient>
	<path style="fill:url(#SVGID_00000054262478578489532440000000842830454560974511_);" d="M242.37,252.46c0-13.34,0-26.42,0-39.64
		c-17.59,0-35.11,0-52.77,0c0,13.15,0,26.22,0,39.53c0.77,0.04,1.52,0.1,2.27,0.1c5.17,0.01,10.34,0,15.52,0.01
		c0.64,0,1.28-0.02,1.91,0.07c1.89,0.28,3.03,1.56,2.89,3.31c-0.15,1.82-1.2,2.93-3.01,2.94c-7.65,0.06-15.3,0.06-22.96,0.01
		c-1.93-0.01-2.95-1.19-3.1-3.1c-0.04-0.56-0.03-1.13-0.03-1.7c0-14.31,0-28.63,0-42.94c0-3.98,0.77-4.76,4.68-4.77
		c1.62,0,3.24,0,5.08,0c0.04-0.91,0.11-1.66,0.11-2.41c0.02-5.1-0.08-10.21,0.07-15.3c0.36-12.21,10.83-22.15,23.07-22.02
		c12.37,0.13,22.57,10.01,22.86,22.26c0.12,4.96,0.04,9.92,0.04,14.88c0,0.77,0,1.53,0,2.6c2.14,0,4.1-0.03,6.06,0.01
		c2.69,0.04,3.78,1.06,3.78,3.72c0.02,15.02,0.02,30.04,0,45.06c0,2.66-1.08,3.73-3.76,3.74c-7.16,0.03-14.31,0.03-21.47,0
		c-2.45-0.01-3.75-1.1-3.81-3.05c-0.06-2.02,1.31-3.29,3.81-3.3C229.78,252.44,235.95,252.46,242.37,252.46z M206.24,206.16
		c0-5.69-0.06-11.14,0.02-16.59c0.08-5.58,4.48-9.75,10-9.62c5.36,0.12,9.42,4.33,9.48,9.96c0.06,5.36,0.01,10.73,0.01,16.23
		c2.35,0,4.51,0,6.88,0c0-2.08,0.02-4.05,0-6.01c-0.04-4.32,0.3-8.68-0.23-12.94c-1.06-8.5-8.86-14.75-17.11-14.21
		c-9.05,0.59-15.73,7.45-15.91,16.45c-0.09,4.46-0.02,8.92-0.03,13.38c0,1.1,0,2.2,0,3.36
		C201.78,206.16,203.88,206.16,206.24,206.16z M219.37,206.21c0-5.45,0.02-10.67-0.01-15.9c-0.01-2.55-1.29-3.99-3.4-3.97
		c-2.11,0.01-3.33,1.44-3.34,4.02c-0.02,4.74-0.01,9.48,0,14.22c0,0.53,0.11,1.07,0.18,1.63
		C214.99,206.21,217.02,206.21,219.37,206.21z"/>
	
		<linearGradient id="SVGID_00000131348882705370358380000004117808542443957891_" gradientUnits="userSpaceOnUse" x1="206.2133" y1="231.5964" x2="225.7688" y2="231.5964">
		<stop  offset="0" style="stop-color:#93C650"/>
		<stop  offset="0.1793" style="stop-color:#7EC26B"/>
		<stop  offset="0.4104" style="stop-color:#64BE85"/>
		<stop  offset="0.6305" style="stop-color:#4CBB95"/>
		<stop  offset="0.8326" style="stop-color:#39B99E"/>
		<stop  offset="1" style="stop-color:#30B8A1"/>
	</linearGradient>
	<path style="fill:url(#SVGID_00000131348882705370358380000004117808542443957891_);" d="M206.21,228.41
		c-0.04-4.65,3.27-8.8,7.69-9.67c4.75-0.93,9.28,1.45,11.1,5.82c1.81,4.36,0.35,9.53-3.76,11.87c-1.81,1.03-2.36,2.17-2.1,4.02
		c0.06,0.41,0.01,0.85-0.04,1.27c-0.22,1.8-1.24,2.87-3.05,2.92c-1.82,0.05-3.29-1.04-3.11-2.76c0.35-3.21-1.17-4.9-3.61-6.55
		C207.19,233.88,206.23,231.04,206.21,228.41z M219.39,228.31c0-1.82-1.5-3.33-3.35-3.36c-1.87-0.03-3.38,1.4-3.44,3.25
		c-0.06,1.93,1.5,3.51,3.43,3.48C217.87,231.66,219.38,230.14,219.39,228.31z"/>
</g>
</svg>
