<?xml version="1.0" encoding="utf-8"?>
<!-- Generator: Adobe Illustrator 27.0.0, SVG Export Plug-In . SVG Version: 6.00 Build 0)  -->
<svg version="1.1" id="Layer_1" xmlns="http://www.w3.org/2000/svg" xmlns:xlink="http://www.w3.org/1999/xlink" x="0px" y="0px"
	 viewBox="0 0 432 432" style="enable-background:new 0 0 432 432;" xml:space="preserve">
<style type="text/css">
	.st0{fill:url(#SVGID_1_);}
	.st1{fill:url(#SVGID_00000023281203644606726560000001758449451373990539_);}
</style>
<linearGradient id="SVGID_1_" gradientUnits="userSpaceOnUse" x1="151.6814" y1="208.3106" x2="285.2549" y2="208.3106">
	<stop  offset="0" style="stop-color:#93C650"/>
	<stop  offset="0.1793" style="stop-color:#7EC26B"/>
	<stop  offset="0.4104" style="stop-color:#64BE85"/>
	<stop  offset="0.6305" style="stop-color:#4CBB95"/>
	<stop  offset="0.8326" style="stop-color:#39B99E"/>
	<stop  offset="1" style="stop-color:#30B8A1"/>
</linearGradient>
<path class="st0" d="M228.05,127.25c7.23,0.94,14.61,1.3,21.67,2.99c8.2,1.97,16.35,4.55,24.08,7.89
	c7.85,3.39,11.98,9.55,11.4,18.87c-0.64,10.28-0.15,20.64-0.15,30.96c0,1.3,0,2.6,0,3.95c-2.81-0.39-5.28-0.73-8.16-1.12
	c0-4.23,0-8.39,0-12.56c0-4.2,0-8.39,0-12.25c-38.95,15.43-77.72,15.41-117.01,0.06c0,1.96,0,4.42,0,6.89
	c0,3.96,0.48,7.99-0.1,11.87c-1.19,8,3.02,11.87,9.66,14.64c11.78,4.91,24.11,7.11,36.73,7.68c8.82,0.4,17.66,0.08,26.76,0.08
	c-2.03,2.72-3.77,5.22-5.72,7.56c-0.51,0.61-1.65,0.95-2.51,0.96c-18.55,0.31-36.92-0.97-54.58-7.27c-3.34-1.19-6.47-2.95-10.02-4.6
	c0,8.3-0.33,16.34,0.23,24.31c0.14,2.03,2.81,4.38,4.88,5.68c7.2,4.53,15.37,6.64,23.67,7.9c8.99,1.36,18.06,2.14,27.38,3.2
	c0,2.23,0,4.77,0,7.69c-19.31-0.79-38.3-2.36-56.24-12.22c0,4.29,0,8.17,0,12.05c0,2.16,0.3,4.37-0.05,6.47
	c-1.19,7.11,2.44,10.84,8.47,13.53c11.34,5.06,23.32,7.17,35.55,8.09c6.81,0.51,13.67,0.3,20.5,0.47c0.9,0.02,2.08,0.08,2.63,0.62
	c2.08,2.09,3.96,4.39,6.02,6.74c-1.63,0.37-3,0.68-4.37,0.99c-6.72,0-13.45,0-20.17,0c-1.53-0.22-3.08-0.38-4.6-0.66
	c-10.46-1.91-21.1-3.18-31.32-5.98c-8.5-2.33-16.73-6.17-21.01-14.97c0-39.15,0-78.29,0-117.44c1.85-5.84,6.03-9.55,11.24-12.38
	c8.74-4.74,18.23-7.04,27.94-8.51c5.89-0.89,11.83-1.46,17.74-2.17C215.09,127.25,221.57,127.25,228.05,127.25z M223.28,169.21
	c5.37-0.62,16.11-1.55,26.74-3.19c8.17-1.26,16.15-3.63,23.07-8.46c4.94-3.45,5.07-7.14,0.06-10.46c-3.35-2.22-7.11-3.98-10.91-5.33
	c-12.67-4.49-25.9-5.89-39.23-6.23c-15.27-0.38-30.44,0.78-45.16,5.15c-4.32,1.28-8.6,3.03-12.54,5.21
	c-7.22,3.99-7.07,8.81,0.17,12.93c2.07,1.18,4.26,2.19,6.49,3.04C186.76,167.52,202.23,168.84,223.28,169.21z"/>
<linearGradient id="SVGID_00000002342621714401326890000015698189777885306292_" gradientUnits="userSpaceOnUse" x1="232.3837" y1="247.8153" x2="313.7934" y2="247.8153">
	<stop  offset="0" style="stop-color:#93C650"/>
	<stop  offset="0.1793" style="stop-color:#7EC26B"/>
	<stop  offset="0.4104" style="stop-color:#64BE85"/>
	<stop  offset="0.6305" style="stop-color:#4CBB95"/>
	<stop  offset="0.8326" style="stop-color:#39B99E"/>
	<stop  offset="1" style="stop-color:#30B8A1"/>
</linearGradient>
<path style="fill:url(#SVGID_00000002342621714401326890000015698189777885306292_);" d="M313.79,254.06
	c-1.56,2.97-4.33,3.28-7.12,2.83c-4.96-0.8-4.27,3.74-5.98,6c-1.64,2.15,0.6,2.96,1.63,4.02c3.97,4.11,4.01,5.12,0.01,9.15
	c-0.34,0.34-0.68,0.68-1.01,1.02c-5.58,5.58-5.94,5.7-11.36,0.14c-1.85-1.89-3.16-0.89-5.01-0.51c-4.02,0.83-5.51,2.89-4.91,6.96
	c0.46,3.15-1.45,4.62-4.49,4.67c-2.52,0.04-5.14,0.39-7.52-0.19c-1.5-0.37-3.89-2.42-3.73-3.35c1.08-6.33-2.55-8.7-7.97-10.06
	c-0.29,0.24-0.86,0.64-1.36,1.13c-5.4,5.26-6,5.27-11.19,0.01c-0.93-0.94-1.86-1.87-2.76-2.84c-1.74-1.87-2.19-4.26-0.07-5.65
	c5.51-3.61,3.75-7.77,1.29-12.59c-1.25,0-2.77,0-4.29,0c-0.48,0-0.96,0.03-1.44-0.03c-4.26-0.52-4.25-3.73-3.95-6.76
	c0.33-3.33-1.91-8.99,3.61-8.88c6.3,0.12,8.67-2.68,9.89-8.06c-5.91-8.09-5.95-8.13,1.27-14.84c5.79-5.38,7.39,2.19,11.21,3.64
	c2.33-0.88,4.87-1.85,7.65-2.9c0-1.87-0.05-3.78,0.01-5.68c0.08-2.59,1.52-3.97,4.07-4.06c2.64-0.09,5.28-0.1,7.92,0
	c2.56,0.1,3.9,1.56,3.98,4.14c0.01,0.36,0.01,0.72,0.01,1.08c0.08,4.74,2.26,7.47,6.96,8.2c0.86,0.13,2.08-0.85,2.87-1.6
	c4.77-4.51,5.31-4.53,9.88,0.07c0.51,0.51,1.02,1.02,1.53,1.53c4.42,4.43,4.4,5.24,0.1,9.64c-0.95,0.97-2.44,2.37-2.26,3.28
	c0.49,2.41,1.48,4.85,2.86,6.88c0.5,0.74,2.74,0.11,4.07,0.5c1.93,0.58,3.75,1.52,5.61,2.3
	C313.79,246.86,313.79,250.46,313.79,254.06z M273.09,231.6c-9,0.02-16.21,7.26-16.19,16.24c0.03,8.9,7.41,16.26,16.29,16.24
	c8.94-0.02,16.11-7.3,16.1-16.34C289.29,238.64,282.19,231.58,273.09,231.6z"/>
</svg>
