<?xml version="1.0" encoding="utf-8"?>
<!-- Generator: Adobe Illustrator 27.0.0, SVG Export Plug-In . SVG Version: 6.00 Build 0)  -->
<svg version="1.1" id="Layer_1" xmlns="http://www.w3.org/2000/svg" xmlns:xlink="http://www.w3.org/1999/xlink" x="0px" y="0px"
	 viewBox="0 0 432 432" style="enable-background:new 0 0 432 432;" xml:space="preserve">
<style type="text/css">
	.st0{fill:url(#SVGID_1_);}
	.st1{fill:url(#SVGID_00000118368348835356260890000007648348762036728728_);}
	.st2{fill:url(#SVGID_00000175285590780630285230000011438938799468416143_);}
	.st3{fill:url(#SVGID_00000154397597767098316670000018051224114387426993_);}
	.st4{fill:url(#SVGID_00000137827947078384188110000011743637676041974156_);}
	.st5{fill:url(#SVGID_00000107585443440026010350000017736440119534016651_);}
</style>
<g>
	<linearGradient id="SVGID_1_" gradientUnits="userSpaceOnUse" x1="116.3275" y1="195.1347" x2="275.5685" y2="195.1347">
		<stop  offset="0" style="stop-color:#93C650"/>
		<stop  offset="0.1793" style="stop-color:#7EC26B"/>
		<stop  offset="0.4104" style="stop-color:#64BE85"/>
		<stop  offset="0.6305" style="stop-color:#4CBB95"/>
		<stop  offset="0.8326" style="stop-color:#39B99E"/>
		<stop  offset="1" style="stop-color:#30B8A1"/>
	</linearGradient>
	<path class="st0" d="M273.37,126.7c2.59,1.99,2.8,3.13,1.1,6.07c-1.48,2.54-2.97,5.08-4.39,7.53c1.21,1.69,2.48,3.19,3.47,4.86
		c5.56,9.37-1.06,22.57-11.89,23.61c-2.21,0.21-4.48-0.28-6.72-0.32c-0.58-0.01-1.45,0.28-1.71,0.71
		c-6.9,11.68-13.74,23.4-20.64,35.18c8.11,9,10.01,18.97,3.3,29.41c-5.21,8.12-13.24,11.58-22.75,9.81
		c-10.51-1.96-16.54-8.9-18.78-19.38c-7.66-1.22-15.33-2.46-23.02-3.64c-0.37-0.06-1,0.36-1.21,0.73
		c-5.25,9.01-12.28,11.61-22.16,8.05c-0.95,1.2-1.94,2.44-2.92,3.68c-7.35,9.38-14.7,18.76-22.06,28.14
		c-1.99,2.54-3.81,3.09-5.53,1.66c-1.62-1.35-1.49-3.24,0.41-5.67c8-10.2,15.98-20.41,24.02-30.58c0.77-0.97,0.89-1.59,0.13-2.68
		c-3.89-5.49-3.89-12.9-0.13-18.33c3.76-5.44,10.82-8.25,16.92-6.74c6.73,1.67,11.57,6.97,12.57,13.64c0.09,0.61,0.71,1.54,1.2,1.62
		c7.07,1.21,14.16,2.29,21.25,3.4c0.17,0.03,0.36-0.02,0.7-0.03c1.63-7.2,5.42-12.91,12.1-16.39c6.7-3.49,13.53-3.43,20.46-0.34
		c0.35-0.52,0.67-0.95,0.94-1.42c6.45-11.02,12.88-22.05,19.38-33.05c0.67-1.14,0.65-1.84-0.25-2.85
		c-4.79-5.39-5.35-12.76-1.58-19.15c3.36-5.69,10.57-8.79,17.15-7.26c1.26,0.29,1.87-0.03,2.45-1.13c1.06-2.01,2.21-3.97,3.43-5.88
		c0.74-1.16,1.7-2.17,2.56-3.26C271.9,126.7,272.63,126.7,273.37,126.7z M233.26,221.13c0.08-8.8-7.1-16.1-15.92-16.19
		c-9.07-0.09-16.43,7.12-16.53,16.21c-0.1,8.81,7.17,16.18,16.06,16.29C225.93,237.54,233.18,230.33,233.26,221.13z M145.55,214.56
		c-0.05,5.37,4.28,9.84,9.56,9.89c5.43,0.05,9.9-4.34,9.93-9.74c0.02-5.34-4.33-9.73-9.68-9.77
		C149.99,204.89,145.6,209.2,145.55,214.56z M269.01,152.82c-0.04-5.47-4.45-9.87-9.82-9.79c-5.24,0.08-9.56,4.42-9.61,9.66
		c-0.05,5.5,4.4,9.9,9.95,9.83C264.79,162.46,269.04,158.11,269.01,152.82z"/>
	
		<linearGradient id="SVGID_00000117663672176819439310000001114285165256637594_" gradientUnits="userSpaceOnUse" x1="174.6569" y1="257.5875" x2="301.5546" y2="257.5875">
		<stop  offset="0" style="stop-color:#93C650"/>
		<stop  offset="0.1793" style="stop-color:#7EC26B"/>
		<stop  offset="0.4104" style="stop-color:#64BE85"/>
		<stop  offset="0.6305" style="stop-color:#4CBB95"/>
		<stop  offset="0.8326" style="stop-color:#39B99E"/>
		<stop  offset="1" style="stop-color:#30B8A1"/>
	</linearGradient>
	<path style="fill:url(#SVGID_00000117663672176819439310000001114285165256637594_);" d="M280,315.64c-1.21-1.2-2.5-2.32-3.62-3.6
		c-10.59-12.04-21.16-24.1-31.73-36.15c-0.32-0.37-0.66-0.72-0.86-0.95c-3.75,1.43-7.3,3.15-11.05,4.16
		c-26.11,6.99-51.54-8.28-57.84-34.59c-0.65-2.73,0.04-4.41,2.03-4.96c2.07-0.57,3.63,0.63,4.28,3.4
		c2.59,11.09,8.72,19.63,18.37,25.62c23.77,14.77,55.82,0.08,60.2-27.62c2.13-13.48-1.66-25.13-11.02-35.01
		c-0.46-0.49-0.94-0.99-1.28-1.56c-0.85-1.41-0.51-3.13,0.75-4.13c1.27-1.01,3.13-1.03,4.33,0.35c2.57,2.96,5.35,5.84,7.33,9.18
		c8.84,14.92,9.35,30.29,1.75,45.91c-0.13,0.27-0.24,0.55-0.41,0.97c1.38,1.27,2.77,2.55,4.16,3.83
		c11.42,10.45,22.85,20.89,34.27,31.34c2.49,2.28,2.53,3.92,0.11,6.35c-5.25,5.26-10.5,10.53-15.77,15.77
		c-0.64,0.64-1.44,1.13-2.16,1.69C281.23,315.64,280.61,315.64,280,315.64z M286.05,288.2c-9.55-8.74-18.96-17.33-27.65-25.28
		c-3.15,2.94-6.08,5.68-9.06,8.46c8.07,9.19,16.29,18.56,24.63,28.06C277.98,295.72,281.92,292.05,286.05,288.2z M293.39,294.91
		c-1.55-1.41-3.2-2.93-4.92-4.5c-4.17,3.88-8.2,7.63-12.34,11.49c1.7,1.94,3.3,3.76,4.81,5.48
		C285.1,303.22,289.16,299.15,293.39,294.91z"/>
	
		<linearGradient id="SVGID_00000003088418391701781380000003475520637660195989_" gradientUnits="userSpaceOnUse" x1="218.7382" y1="250.6125" x2="254.5049" y2="250.6125">
		<stop  offset="0" style="stop-color:#93C650"/>
		<stop  offset="0.1793" style="stop-color:#7EC26B"/>
		<stop  offset="0.4104" style="stop-color:#64BE85"/>
		<stop  offset="0.6305" style="stop-color:#4CBB95"/>
		<stop  offset="0.8326" style="stop-color:#39B99E"/>
		<stop  offset="1" style="stop-color:#30B8A1"/>
	</linearGradient>
	<path style="fill:url(#SVGID_00000003088418391701781380000003475520637660195989_);" d="M222.13,268.54
		c-0.55,0-1.2,0.18-1.63-0.04c-0.66-0.34-1.18-0.96-1.76-1.47c0.53-0.55,0.98-1.47,1.6-1.6c2.46-0.49,5.02-0.5,7.44-1.1
		c13.57-3.35,22.93-14.98,23.51-29.03c0.01-0.31-0.09-0.71,0.07-0.9c0.52-0.64,1.13-1.2,1.7-1.79c0.51,0.64,1.51,1.34,1.44,1.92
		c-0.35,3.35-0.57,6.78-1.53,9.97C248.86,258.16,236.29,267.8,222.13,268.54z"/>
	
		<linearGradient id="SVGID_00000181052509517244928180000008139724891019375803_" gradientUnits="userSpaceOnUse" x1="205.688" y1="216.298" x2="218.6186" y2="216.298">
		<stop  offset="0" style="stop-color:#93C650"/>
		<stop  offset="0.1793" style="stop-color:#7EC26B"/>
		<stop  offset="0.4104" style="stop-color:#64BE85"/>
		<stop  offset="0.6305" style="stop-color:#4CBB95"/>
		<stop  offset="0.8326" style="stop-color:#39B99E"/>
		<stop  offset="1" style="stop-color:#30B8A1"/>
	</linearGradient>
	<path style="fill:url(#SVGID_00000181052509517244928180000008139724891019375803_);" d="M205.69,221.45
		c-0.08-6.22,5.45-11.81,11.07-11.6c0.63,0.02,1.24,0.88,1.86,1.34c-0.53,0.61-0.98,1.65-1.61,1.78c-5.54,1.16-7.08,2.64-8.09,8.17
		c-0.19,1.07-0.75,1.83-1.82,1.54C206.45,222.5,205.97,221.71,205.69,221.45z"/>
	
		<linearGradient id="SVGID_00000159453704744644472560000014715077157372590769_" gradientUnits="userSpaceOnUse" x1="147.1876" y1="211.4051" x2="156.9077" y2="211.4051">
		<stop  offset="0" style="stop-color:#93C650"/>
		<stop  offset="0.1793" style="stop-color:#7EC26B"/>
		<stop  offset="0.4104" style="stop-color:#64BE85"/>
		<stop  offset="0.6305" style="stop-color:#4CBB95"/>
		<stop  offset="0.8326" style="stop-color:#39B99E"/>
		<stop  offset="1" style="stop-color:#30B8A1"/>
	</linearGradient>
	<path style="fill:url(#SVGID_00000159453704744644472560000014715077157372590769_);" d="M147.19,214.99
		c-0.12-4.5,3.71-8.46,7.74-8.36c0.67,0.02,1.32,0.94,1.98,1.44c-0.53,0.56-1,1.51-1.61,1.62c-2.95,0.5-4.53,2.1-5,5.06
		c-0.09,0.59-1.09,1.43-1.66,1.43C148.06,216.18,147.49,215.26,147.19,214.99z"/>
	
		<linearGradient id="SVGID_00000098201256280868175100000008936803351106701705_" gradientUnits="userSpaceOnUse" x1="251.3102" y1="149.5491" x2="260.8792" y2="149.5491">
		<stop  offset="0" style="stop-color:#93C650"/>
		<stop  offset="0.1793" style="stop-color:#7EC26B"/>
		<stop  offset="0.4104" style="stop-color:#64BE85"/>
		<stop  offset="0.6305" style="stop-color:#4CBB95"/>
		<stop  offset="0.8326" style="stop-color:#39B99E"/>
		<stop  offset="1" style="stop-color:#30B8A1"/>
	</linearGradient>
	<path style="fill:url(#SVGID_00000098201256280868175100000008936803351106701705_);" d="M259.47,144.72
		c0.22,0.21,1.12,0.66,1.33,1.32c0.37,1.2-0.57,1.73-1.67,1.88c-2.8,0.38-4.28,1.98-4.75,4.78c-0.11,0.64-1.14,1.12-1.74,1.68
		c-0.46-0.67-1.31-1.33-1.33-2.02C251.2,148.47,254.85,144.83,259.47,144.72z"/>
</g>
</svg>
