<?xml version="1.0" encoding="utf-8"?>
<!-- Generator: Adobe Illustrator 27.0.0, SVG Export Plug-In . SVG Version: 6.00 Build 0)  -->
<svg version="1.1" id="Layer_1" xmlns="http://www.w3.org/2000/svg" xmlns:xlink="http://www.w3.org/1999/xlink" x="0px" y="0px"
	 viewBox="0 0 432 432" style="enable-background:new 0 0 432 432;" xml:space="preserve">
<style type="text/css">
	.st0{fill:url(#SVGID_1_);}
	.st1{fill:url(#SVGID_00000090257427680787330740000016819117828385357231_);}
	.st2{fill:url(#SVGID_00000006704190613205242470000008909101786821494180_);}
	.st3{fill:url(#SVGID_00000150787648988067600190000005956036930356194705_);}
	.st4{fill:url(#SVGID_00000108303866749337628470000002594787695504575916_);}
	.st5{fill:url(#SVGID_00000065061038978490873610000013719485418868488343_);}
	.st6{fill:url(#SVGID_00000170981123182312894440000001210843272438456744_);}
	.st7{fill:url(#SVGID_00000115484433135034096040000013221207242427605131_);}
</style>
<g>
	<linearGradient id="SVGID_1_" gradientUnits="userSpaceOnUse" x1="181.3766" y1="228.057" x2="306.9168" y2="228.057">
		<stop  offset="0" style="stop-color:#93C650"/>
		<stop  offset="0.1793" style="stop-color:#7EC26B"/>
		<stop  offset="0.4104" style="stop-color:#64BE85"/>
		<stop  offset="0.6305" style="stop-color:#4CBB95"/>
		<stop  offset="0.8326" style="stop-color:#39B99E"/>
		<stop  offset="1" style="stop-color:#30B8A1"/>
	</linearGradient>
	<path class="st0" d="M248.53,299.53c-8.78-5.1-13.26-13.84-18.52-21.9c-1.51-2.31-2.75-4.8-4.37-7.67
		c-2.01,1.24-3.9,2.43-5.81,3.59c-8.74,5.32-16.81,4.94-24.87-1.28c-5.77-4.45-9.84-10.23-12.12-17.11
		c-2.53-7.63-2.03-15.02,3.63-21.22c7.79-8.54,15.91-16.78,23.69-25.33c11.03-12.12,19.27-25.85,23.78-41.76
		c2.99-10.56,8.56-12.79,18.49-7.55c12.12,6.4,21.09,16.44,29.6,26.85c9.3,11.37,17.73,23.42,22.44,37.44
		c1.9,5.65,2.3,11.96,2.46,17.99c0.12,4.76-3.39,7.5-8.04,8c-4.89,0.53-9.83,0.83-14.74,0.8c-11.56-0.07-22.66,2.07-33.33,6.41
		c-1.34,0.55-3.36,2.06-3.28,2.96c0.18,1.88,1.44,3.72,2.45,5.45c1.31,2.25,2.69,4.49,4.28,6.54c1.28,1.65,2.67,3.74,4.46,4.39
		c5.12,1.86,6.71,4.25,4.99,9.38c-1.96,5.82-5.24,10.7-10.56,14.01C251.61,299.53,250.07,299.53,248.53,299.53z M237.16,179.31
		c-0.33,0.39-0.56,0.57-0.67,0.8c-0.32,0.7-0.62,1.41-0.88,2.13c-4.67,12.98-11.89,24.2-22.05,33.69
		c-7.65,7.15-14.77,14.89-21.9,22.58c-1.69,1.82-3.36,4.43-3.52,6.79c-0.67,9.64,4.35,16.68,11.58,22.36
		c6.29,4.94,12.37,2.8,18.43-0.75c9.91-5.82,9.74-5.64,15.65,4.03c4.09,6.68,8.75,13.02,13.34,19.38c1.36,1.88,3.54,3.71,5.72,1.1
		c2.07-2.49,3.59-5.43,5.75-8.78c-5.92-0.65-9.69-2.23-10.36-7.92c-0.21-1.77-1.85-3.69-3.33-4.93c-6.34-5.32-5.03-15.97,2.69-18.62
		c6.96-2.39,14.08-4.45,21.26-6.05c4.82-1.07,9.87-1.08,15.31-1.61C262.12,226.38,246.77,205.03,237.16,179.31z M274.27,227.9
		c6.91,4.75,13.58,9.65,20.59,14.01c4.03,2.51,6.71,0.85,6.22-3.98c-0.51-4.97-1.54-10.11-3.53-14.66
		c-9.16-20.94-22.76-38.66-40.34-53.23c-3.15-2.61-6.9-4.66-10.66-6.32c-3.56-1.57-5.38-0.09-5.04,3.73
		c1.06,11.77,6.53,21.85,12.1,31.92c8.26-2.91,15.51-2.04,21.12,4.36C281.22,211.15,277.96,218.99,274.27,227.9z"/>
	
		<linearGradient id="SVGID_00000158717201658491930260000002047391848831063952_" gradientUnits="userSpaceOnUse" x1="113.2672" y1="181.429" x2="261.0204" y2="181.429">
		<stop  offset="0" style="stop-color:#93C650"/>
		<stop  offset="0.1793" style="stop-color:#7EC26B"/>
		<stop  offset="0.4104" style="stop-color:#64BE85"/>
		<stop  offset="0.6305" style="stop-color:#4CBB95"/>
		<stop  offset="0.8326" style="stop-color:#39B99E"/>
		<stop  offset="1" style="stop-color:#30B8A1"/>
	</linearGradient>
	<path style="fill:url(#SVGID_00000158717201658491930260000002047391848831063952_);" d="M207.76,107.76
		c6.57,2.43,9.17,7.19,8.6,14.07c-0.2,2.39-0.63,5.85,0.67,7.03c2.51,2.27,6.11,3.41,9.4,4.66c0.69,0.26,2.12-0.86,2.94-1.63
		c10.97-10.25,13.75-10.24,24.34,0.22c2.51,2.48,5.05,4.95,7.31,7.82c-5.45-2.42-12.14-1.61-16.25-7.28
		c-1.84-2.53-4.53-2.21-6.79,0.11c-2.26,2.32-4.34,4.94-6.98,6.72c-1.53,1.03-4.24,1.39-6,0.8c-4.06-1.35-8.04-3.17-11.71-5.38
		c-1.62-0.98-3.1-3.23-3.42-5.11c-0.55-3.3-0.21-6.77-0.15-10.16c0.06-3.44-1.6-5.23-4.98-5.27c-4.94-0.07-9.88-0.08-14.82,0.01
		c-3.13,0.06-5.43,1.98-4.85,4.93c2.13,10.82-2.87,15.47-12.84,18.22c-4.88,1.34-7.56,1.45-11.14-2.21
		c-9-9.19-7.81-10.24-18.03,0.08c-9.06,9.15-8.63,8.42,0.17,16.66c3.73,3.49,4.62,6.5,1.5,10.65c-1.09,1.45-1.81,3.23-2.49,4.94
		c-3.44,8.77-1.67,7.71-11.95,7.75c-10.47,0.04-10.47,0.01-10.47,10.51c0,2.93,0.01,5.87,0,8.8c0,3.61,1.91,5.41,5.41,5.52
		c3.24,0.1,6.48,0.11,9.72,0.02c2.58-0.08,3.78,1.01,4.54,3.52c1.24,4.11,3.3,7.99,4.38,12.13c0.47,1.81-0.06,4.45-1.16,5.99
		c-1.95,2.72-4.63,4.94-7.09,7.28c-2.48,2.35-2.72,4.7-0.28,7.19c3.35,3.41,6.71,6.82,10.08,10.22c2.74,2.76,5.4,2.49,8-0.24
		c1.71-1.78,3.26-3.81,5.25-5.2c1.81-1.25,4.26-2.71,6.18-2.42c3.21,0.49,5.23,2.92,4.5,6.68c-0.14,0.7-0.02,1.45-0.02,3.34
		c-5.58-5.7-8.12-0.93-11.2,2.07c-5.88,5.75-11.94,5.75-17.78-0.05c-3.5-3.48-7.06-6.92-10.36-10.59
		c-4.24-4.73-4.56-11.02,0.44-14.77c7.23-5.41,7.18-11.08,3.05-17.92c-0.08-0.12-0.18-0.23-0.53-0.67
		c-7.58,0.24-15.79,1.02-19.71-8.22c0-7.1,0-14.21,0-21.31c2.59-6.38,7.28-9.18,14.14-8.43c1.67,0.18,3.4,0.17,5.07-0.03
		c0.94-0.11,2.16-0.53,2.68-1.23c4.65-6.29,4.33-9.61-1.27-15.4c-0.32-0.33-0.66-0.65-0.96-1c-3.96-4.49-4.15-10.18-0.1-14.61
		c3.85-4.2,7.9-8.22,12.1-12.07c4.49-4.12,10.03-4,14.58,0c1.62,1.42,3.34,2.82,4.61,4.53c4.14,5.59,7.92,0.16,11.8-0.32
		c3.42-0.42,2.5-3.43,2.36-5.52c-0.49-6.91,1.56-12.34,8.19-15.41C193.56,107.76,200.66,107.76,207.76,107.76z"/>
	
		<linearGradient id="SVGID_00000008833667118651440960000005147240846622939015_" gradientUnits="userSpaceOnUse" x1="310.6557" y1="211.9225" x2="338.3895" y2="211.9225">
		<stop  offset="0" style="stop-color:#93C650"/>
		<stop  offset="0.1793" style="stop-color:#7EC26B"/>
		<stop  offset="0.4104" style="stop-color:#64BE85"/>
		<stop  offset="0.6305" style="stop-color:#4CBB95"/>
		<stop  offset="0.8326" style="stop-color:#39B99E"/>
		<stop  offset="1" style="stop-color:#30B8A1"/>
	</linearGradient>
	<path style="fill:url(#SVGID_00000008833667118651440960000005147240846622939015_);" d="M338.39,210.6
		c-2.28,1.12-4.47,2.52-6.86,3.31c-5.23,1.73-10.5,3.42-15.88,4.53c-1.43,0.29-3.32-1.59-4.99-2.47c0.87-1.56,1.39-4.06,2.65-4.51
		c6.62-2.36,13.38-4.39,20.21-6.04c1.35-0.33,3.23,1.54,4.87,2.4C338.39,208.74,338.39,209.67,338.39,210.6z"/>
	
		<linearGradient id="SVGID_00000041988249807280872090000008655729550074161325_" gradientUnits="userSpaceOnUse" x1="160.8435" y1="187.5245" x2="220.7806" y2="187.5245">
		<stop  offset="0" style="stop-color:#93C650"/>
		<stop  offset="0.1793" style="stop-color:#7EC26B"/>
		<stop  offset="0.4104" style="stop-color:#64BE85"/>
		<stop  offset="0.6305" style="stop-color:#4CBB95"/>
		<stop  offset="0.8326" style="stop-color:#39B99E"/>
		<stop  offset="1" style="stop-color:#30B8A1"/>
	</linearGradient>
	<path style="fill:url(#SVGID_00000041988249807280872090000008655729550074161325_);" d="M218.38,172.76
		c-15.26-14.24-32.73-14.7-44.18-1.44c-11.94,13.81-8.71,30.05,8.98,44.3c-1.29,1.46-2.58,2.92-3.81,4.31
		c-16.46-6.9-23.53-29.53-14.67-46.31c9.95-18.87,34.59-24.37,51.61-11.53C221.87,166.28,221.87,166.28,218.38,172.76z"/>
	
		<linearGradient id="SVGID_00000161606106063392578130000007315387017389824940_" gradientUnits="userSpaceOnUse" x1="266.3139" y1="142.0604" x2="287.46" y2="142.0604">
		<stop  offset="0" style="stop-color:#93C650"/>
		<stop  offset="0.1793" style="stop-color:#7EC26B"/>
		<stop  offset="0.4104" style="stop-color:#64BE85"/>
		<stop  offset="0.6305" style="stop-color:#4CBB95"/>
		<stop  offset="0.8326" style="stop-color:#39B99E"/>
		<stop  offset="1" style="stop-color:#30B8A1"/>
	</linearGradient>
	<path style="fill:url(#SVGID_00000161606106063392578130000007315387017389824940_);" d="M270.89,155.03
		c-3.3,0.12-5.66-2.95-4.08-5.27c4.57-6.74,9.39-13.33,14.44-19.72c0.75-0.96,3.76-1.26,4.81-0.54c1.04,0.71,1.81,3.71,1.17,4.67
		c-4.55,6.75-9.47,13.26-14.36,19.78C272.38,154.58,271.32,154.8,270.89,155.03z"/>
	
		<linearGradient id="SVGID_00000129885103909370766270000004899781303318237115_" gradientUnits="userSpaceOnUse" x1="282.0232" y1="156.7363" x2="304.5479" y2="156.7363">
		<stop  offset="0" style="stop-color:#93C650"/>
		<stop  offset="0.1793" style="stop-color:#7EC26B"/>
		<stop  offset="0.4104" style="stop-color:#64BE85"/>
		<stop  offset="0.6305" style="stop-color:#4CBB95"/>
		<stop  offset="0.8326" style="stop-color:#39B99E"/>
		<stop  offset="1" style="stop-color:#30B8A1"/>
	</linearGradient>
	<path style="fill:url(#SVGID_00000129885103909370766270000004899781303318237115_);" d="M285.21,168.02
		c-0.97-0.7-2.67-1.29-2.95-2.29c-0.4-1.39-0.33-3.65,0.55-4.56c5.12-5.28,10.42-10.39,15.94-15.25c0.89-0.78,3.57-0.53,4.68,0.27
		c0.9,0.65,1.47,3.59,0.85,4.24c-5.51,5.74-11.3,11.21-17.04,16.71C286.84,167.54,286.15,167.63,285.21,168.02z"/>
	
		<linearGradient id="SVGID_00000037666446947830307690000002700364671364595873_" gradientUnits="userSpaceOnUse" x1="295.8274" y1="173.1848" x2="320.3749" y2="173.1848">
		<stop  offset="0" style="stop-color:#93C650"/>
		<stop  offset="0.1793" style="stop-color:#7EC26B"/>
		<stop  offset="0.4104" style="stop-color:#64BE85"/>
		<stop  offset="0.6305" style="stop-color:#4CBB95"/>
		<stop  offset="0.8326" style="stop-color:#39B99E"/>
		<stop  offset="1" style="stop-color:#30B8A1"/>
	</linearGradient>
	<path style="fill:url(#SVGID_00000037666446947830307690000002700364671364595873_);" d="M298.77,182.79
		c-0.87-0.83-2.45-1.66-2.81-2.86c-0.36-1.2,0-3.45,0.88-4.07c6.01-4.25,12.14-8.34,18.47-12.09c0.99-0.59,3.63,0.31,4.58,1.36
		c0.73,0.8,0.6,3.77-0.19,4.33c-6.22,4.46-12.69,8.57-19.1,12.77C300.24,182.47,299.74,182.51,298.77,182.79z"/>
	
		<linearGradient id="SVGID_00000002353194016489588060000015509840464029860770_" gradientUnits="userSpaceOnUse" x1="305.0668" y1="191.4671" x2="329.9539" y2="191.4671">
		<stop  offset="0" style="stop-color:#93C650"/>
		<stop  offset="0.1793" style="stop-color:#7EC26B"/>
		<stop  offset="0.4104" style="stop-color:#64BE85"/>
		<stop  offset="0.6305" style="stop-color:#4CBB95"/>
		<stop  offset="0.8326" style="stop-color:#39B99E"/>
		<stop  offset="1" style="stop-color:#30B8A1"/>
	</linearGradient>
	<path style="fill:url(#SVGID_00000002353194016489588060000015509840464029860770_);" d="M326.6,183.7
		c1.4,1.29,3.09,2.13,3.29,3.23c0.25,1.37-0.31,3.89-1.25,4.32c-6.41,2.92-12.96,5.54-19.58,7.93c-0.95,0.34-3.23-0.81-3.68-1.81
		c-0.56-1.25-0.36-4.11,0.39-4.47C312.51,189.65,319.43,186.8,326.6,183.7z"/>
</g>
</svg>
