<?xml version="1.0" encoding="utf-8"?>
<!-- Generator: Adobe Illustrator 27.0.0, SVG Export Plug-In . SVG Version: 6.00 Build 0)  -->
<svg version="1.1" id="Layer_1" xmlns="http://www.w3.org/2000/svg" xmlns:xlink="http://www.w3.org/1999/xlink" x="0px" y="0px"
	 viewBox="0 0 432 432" style="enable-background:new 0 0 432 432;" xml:space="preserve">
<style type="text/css">
	.st0{fill:url(#SVGID_1_);}
	.st1{fill:url(#SVGID_00000039811918446921219250000005989156065284529070_);}
	.st2{fill:url(#SVGID_00000151542081295271646450000003959997017709815457_);}
	.st3{fill:url(#SVGID_00000078742866448880314820000000006956631489980811_);}
	.st4{fill:url(#SVGID_00000131343404320882040740000005501114710612611991_);}
</style>
<g>
	<linearGradient id="SVGID_1_" gradientUnits="userSpaceOnUse" x1="128.5995" y1="215.1282" x2="337.6025" y2="215.1282">
		<stop  offset="0" style="stop-color:#93C650"/>
		<stop  offset="0.1793" style="stop-color:#7EC26B"/>
		<stop  offset="0.4104" style="stop-color:#64BE85"/>
		<stop  offset="0.6305" style="stop-color:#4CBB95"/>
		<stop  offset="0.8326" style="stop-color:#39B99E"/>
		<stop  offset="1" style="stop-color:#30B8A1"/>
	</linearGradient>
	<path class="st0" d="M208.14,267.96c-22.58,0-44.32,0-66.05,0c-11.09,0-13.47-2.32-13.47-13.24c-0.01-36.96-0.01-73.91,0-110.87
		c0-11.1,2.15-13.2,13.46-13.2c55.02-0.01,110.04-0.01,165.07,0c11.3,0,13.33,2.03,13.33,13.21c0.01,18.68,0.21,37.37-0.13,56.05
		c-0.1,5.4,1.51,9.2,5.41,12.78c6.27,5.75,6.08,5.95,0.44,12.75c-0.75,0.9-1.34,1.94-2.73,3.98c8.83,0.55,14.77,2.17,14.09,13.21
		c-0.66,10.65-9.46,5.13-13.23,8.61c2.14,4.05,5.54,7.68,5.49,11.26c-0.04,2.77-4.33,5.54-6.83,8.2c-6.62,7.04-8.96-3-14.47-3.6
		c-2.65,4.72,0.73,13.41-10.84,13.28c-11.22-0.12-9.15-7.63-11.15-14.03c-2.03,1.43-3.51,2.12-4.53,3.24
		c-3.75,4.11-7.27,5.03-11.13,0.08c-0.74-0.95-2.45-1.6-3.72-1.62c-8.37-0.14-16.75-0.07-26.01-0.07c0.57,5.8,0.1,11.4,1.94,16.09
		c1.23,3.13,5.55,5.31,8.88,7.24c1.79,1.04,4.55,0.27,6.6,1.05c1.42,0.54,2.37,2.32,3.53,3.55c-1.22,1.15-2.27,2.72-3.72,3.33
		c-1.41,0.6-3.23,0.25-4.87,0.25c-19.3,0.01-38.6,0.01-57.9,0c-1.44,0-3.1,0.39-4.25-0.19c-1.56-0.79-2.74-2.35-4.08-3.59
		c1.19-1.17,2.2-2.83,3.63-3.4c1.84-0.73,4.05-0.46,6.07-0.83c6.66-1.21,9.53-4.45,10.07-11.15c0.16-2.05,0.4-4.08,0.58-6.13
		C207.77,272.39,207.91,270.58,208.14,267.96z M286.96,213.84c1.04-7.13,0.14-13.62,11.09-13.84c11.74-0.24,7.27,9.48,12.42,15.23
		c1.17-3.96,2.49-6.38,2.51-8.81c0.17-18.69,0.1-37.38,0.1-56.07c0-3.85,0-7.69,0-11.78c-2.28-0.21-3.87-0.49-5.46-0.49
		c-55.25-0.02-110.49,0.03-165.74-0.11c-4.59-0.01-5.98,1.35-5.95,5.94c0.18,29.78,0.08,59.56,0.11,89.34
		c0,1.59,0.28,3.19,0.44,4.94c40.53,0,80.71,0,121.29,0c-1.71-11.31,9.53-5.2,12.87-9.41c-0.93-5.15-10.67-7.63-3.34-14.21
		c2.72-2.44,5.46-6.67,8.26-6.74C278.93,207.77,282.4,211.25,286.96,213.84z M271.23,251.55c-6.79-2-13.04-5.34-19.32-5.43
		c-36.54-0.51-73.09-0.25-109.63-0.23c-1.95,0-3.9,0.22-5.78,0.33c0,5.04,0,9.45,0,14.34c2.72,0,4.95,0,7.18,0
		c37.78,0,75.56-0.24,113.33,0.21C264.31,260.86,267.46,257.14,271.23,251.55z M276.83,264.59c3.68-4.69,7.39-7.32,13.66-3.98
		c4.03,2.15,4.12,4.91,4.63,8.35c0.18,1.18,1.74,2.16,2.67,3.23c0.71-1.05,2.11-2.16,2.02-3.13c-0.58-6.14,3.34-9.03,8.18-9.34
		c3.63-0.23,7.42,2.14,11.75,3.55c0.09-0.09,0.91-0.96,1.7-1.78c-0.29-0.55-0.43-0.95-0.67-1.25c-7.25-8.92-5.12-15.22,5.89-17.71
		c1.09-0.25,1.96-1.48,2.94-2.26c-1.13-0.87-2.22-2.4-3.41-2.48c-3.87-0.28-6.37-1.04-8.53-5.23c-3.26-6.32,0.42-9.44,3.7-14.12
		c-1.98-0.57-4.16-0.92-5.41,0c-7.39,5.39-14.46,2.55-16.03-6.53c-0.23-1.35-1.37-2.55-2.09-3.82c-0.96,1.26-2.54,2.42-2.78,3.8
		c-1.62,9.28-8.37,11.8-16.38,6.18c-1.11-0.78-3.24-0.11-3.28-0.11c1.01,5.2,2.53,9.02,2.29,12.72c-0.35,5.25-4.02,7.53-9.4,7.16
		c-0.91-0.06-1.93,1.52-2.89,2.34c1.15,0.82,2.25,2.23,3.46,2.34c3.86,0.36,6.42,1.23,8.54,5.35c3.23,6.26-0.43,9.49-4.08,13.33
		C274.5,262.37,275.49,263.32,276.83,264.59z M215.99,268.31c-1.2,8.1-2.31,15.66-3.45,23.39c8.19,0,16.45,0,24.19,0
		c-1.19-7.91-2.34-15.49-3.53-23.39C227.5,268.31,221.88,268.31,215.99,268.31z"/>
	
		<linearGradient id="SVGID_00000127018838323468326000000012551268225886216885_" gradientUnits="userSpaceOnUse" x1="233.8886" y1="190.812" x2="267.2527" y2="190.812">
		<stop  offset="0" style="stop-color:#93C650"/>
		<stop  offset="0.1793" style="stop-color:#7EC26B"/>
		<stop  offset="0.4104" style="stop-color:#64BE85"/>
		<stop  offset="0.6305" style="stop-color:#4CBB95"/>
		<stop  offset="0.8326" style="stop-color:#39B99E"/>
		<stop  offset="1" style="stop-color:#30B8A1"/>
	</linearGradient>
	<path style="fill:url(#SVGID_00000127018838323468326000000012551268225886216885_);" d="M258.61,190.8
		c-6.95-7.38-13.68-14.53-20.42-21.69c-1.13-1.19-2.68-2.21-3.28-3.62c-0.75-1.79-0.72-3.91-1.03-5.89c2.11,0.28,5.02-0.24,6.2,0.95
		c8.67,8.73,16.97,17.82,25.46,26.74c2.57,2.7,2.04,4.89-0.36,7.39c-8.24,8.58-16.23,17.41-24.65,25.81
		c-1.36,1.35-4.37,1.05-6.61,1.52c0.43-2.11,0.17-4.84,1.41-6.24C242.82,207.38,250.63,199.29,258.61,190.8z"/>
	
		<linearGradient id="SVGID_00000022553686596113626240000016650492035861471151_" gradientUnits="userSpaceOnUse" x1="157.5261" y1="190.8422" x2="190.4291" y2="190.8422">
		<stop  offset="0" style="stop-color:#93C650"/>
		<stop  offset="0.1793" style="stop-color:#7EC26B"/>
		<stop  offset="0.4104" style="stop-color:#64BE85"/>
		<stop  offset="0.6305" style="stop-color:#4CBB95"/>
		<stop  offset="0.8326" style="stop-color:#39B99E"/>
		<stop  offset="1" style="stop-color:#30B8A1"/>
	</linearGradient>
	<path style="fill:url(#SVGID_00000022553686596113626240000016650492035861471151_);" d="M165.89,190.82
		c7.92,8.39,15.52,16.15,22.69,24.28c1.45,1.65,1.25,4.77,1.8,7.21c-2.39-0.77-5.47-0.86-7.06-2.44
		c-7.99-7.94-15.49-16.36-23.36-24.42c-3.28-3.36-3.24-5.97,0.07-9.34c8.04-8.18,15.68-16.75,23.79-24.85
		c1.42-1.41,4.37-1.29,6.61-1.88c-0.47,2.28-0.19,5.23-1.53,6.75C181.59,174.39,173.89,182.32,165.89,190.82z"/>
	
		<linearGradient id="SVGID_00000076562766900300177120000015397785390827102359_" gradientUnits="userSpaceOnUse" x1="198.4384" y1="191.0868" x2="225.6352" y2="191.0868">
		<stop  offset="0" style="stop-color:#93C650"/>
		<stop  offset="0.1793" style="stop-color:#7EC26B"/>
		<stop  offset="0.4104" style="stop-color:#64BE85"/>
		<stop  offset="0.6305" style="stop-color:#4CBB95"/>
		<stop  offset="0.8326" style="stop-color:#39B99E"/>
		<stop  offset="1" style="stop-color:#30B8A1"/>
	</linearGradient>
	<path style="fill:url(#SVGID_00000076562766900300177120000015397785390827102359_);" d="M199.81,223.12
		c-0.46-2.19-1.81-4.66-1.23-6.53c1.94-6.24,4.59-12.26,6.93-18.37c4.4-11.46,8.61-23,13.32-34.34c0.86-2.06,3.69-3.3,5.62-4.91
		c0.37,2.48,1.72,5.32,0.96,7.4c-6.32,17.3-12.99,34.47-19.67,51.63c-0.74,1.89-2.25,3.49-3.41,5.22
		C201.49,223.18,200.65,223.15,199.81,223.12z"/>
	
		<linearGradient id="SVGID_00000026136943664358766170000008548579614084122556_" gradientUnits="userSpaceOnUse" x1="282.8732" y1="240.1801" x2="312.0755" y2="240.1801">
		<stop  offset="0" style="stop-color:#93C650"/>
		<stop  offset="0.1793" style="stop-color:#7EC26B"/>
		<stop  offset="0.4104" style="stop-color:#64BE85"/>
		<stop  offset="0.6305" style="stop-color:#4CBB95"/>
		<stop  offset="0.8326" style="stop-color:#39B99E"/>
		<stop  offset="1" style="stop-color:#30B8A1"/>
	</linearGradient>
	<path style="fill:url(#SVGID_00000026136943664358766170000008548579614084122556_);" d="M297.35,254.82
		c-8.07-0.07-14.39-6.38-14.47-14.43c-0.08-8.24,6.59-14.94,14.79-14.84c8.24,0.1,14.63,6.82,14.41,15.15
		C311.86,248.8,305.5,254.89,297.35,254.82z M304.69,240.67c-0.14-4.87-2.66-7.57-7.22-7.6c-4.25-0.03-6.96,2.51-7.07,6.89
		c-0.11,4.27,2.11,7.08,6.53,7.36C301.61,247.61,304.12,245.08,304.69,240.67z"/>
</g>
</svg>
